HIERARCHY
ROOT Hips
{
  OFFSET -4.35178 90.3298 111.633
  CHANNELS 6 Xposition Yposition Zposition Zrotation Xrotation Yrotation
  JOINT LeftUpLeg
  {
    OFFSET 0.103456 1.85784 10.5485
    CHANNELS 6 Xposition Yposition Zposition Zrotation Xrotation Yrotation
    JOINT LeftLeg
    {
      OFFSET 43.5 -4.2e-05 0
      CHANNELS 6 Xposition Yposition Zposition Zrotation Xrotation Yrotation
      JOINT LeftFoot
      {
        OFFSET 42.3722 1.9e-05 0
        CHANNELS 6 Xposition Yposition Zposition Zrotation Xrotation Yrotation
        JOINT LeftToe
        {
          OFFSET 17.3 0 0
          CHANNELS 6 Xposition Yposition Zposition Zrotation Xrotation Yrotation
          End Site
          {
            OFFSET 0 0 0
          }
        }
      }
    }
  }
  JOINT RightUpLeg
  {
    OFFSET 0.103456 1.85782 -10.5485
    CHANNELS 6 Xposition Yposition Zposition Zrotation Xrotation Yrotation
    JOINT RightLeg
    {
      OFFSET 43.5 -2.7e-05 0
      CHANNELS 6 Xposition Yposition Zposition Zrotation Xrotation Yrotation
      JOINT RightFoot
      {
        OFFSET 42.3723 0 0
        CHANNELS 6 Xposition Yposition Zposition Zrotation Xrotation Yrotation
        JOINT RightToe
        {
          OFFSET 17.3 0 1.7e-05
          CHANNELS 6 Xposition Yposition Zposition Zrotation Xrotation Yrotation
          End Site
          {
            OFFSET 0 0 0
          }
        }
      }
    }
  }
  JOINT Spine
  {
    OFFSET 6.90197 -2.60373 0
    CHANNELS 6 Xposition Yposition Zposition Zrotation Xrotation Yrotation
    JOINT Spine1
    {
      OFFSET 12.5881 0 0
      CHANNELS 6 Xposition Yposition Zposition Zrotation Xrotation Yrotation
      JOINT Spine2
      {
        OFFSET 12.3432 -1.8e-05 0
        CHANNELS 6 Xposition Yposition Zposition Zrotation Xrotation Yrotation
        JOINT Neck
        {
          OFFSET 25.8329 2.3e-05 0
          CHANNELS 6 Xposition Yposition Zposition Zrotation Xrotation Yrotation
          JOINT Head
          {
            OFFSET 11.7666 0 0
            CHANNELS 6 Xposition Yposition Zposition Zrotation Xrotation Yrotation
            End Site
            {
              OFFSET 0 0 0
            }
          }
        }
        JOINT LeftShoulder
        {
          OFFSET 19.7459 -1.48035 6.0001
          CHANNELS 6 Xposition Yposition Zposition Zrotation Xrotation Yrotation
          JOINT LeftArm
          {
            OFFSET 11.2841 1.8e-05 -2e-05
            CHANNELS 6 Xposition Yposition Zposition Zrotation Xrotation Yrotation
            JOINT LeftForeArm
            {
              OFFSET 33 -1.3e-05 1.9e-05
              CHANNELS 6 Xposition Yposition Zposition Zrotation Xrotation Yrotation
              JOINT LeftHand
              {
                OFFSET 25.2 3.2e-05 1.1e-05
                CHANNELS 6 Xposition Yposition Zposition Zrotation Xrotation Yrotation
                End Site
                {
                  OFFSET 0 0 0
                }
              }
            }
          }
        }
        JOINT RightShoulder
        {
          OFFSET 19.7461 -1.48036 -6.00008
          CHANNELS 6 Xposition Yposition Zposition Zrotation Xrotation Yrotation
          JOINT RightArm
          {
            OFFSET 11.2841 0 0
            CHANNELS 6 Xposition Yposition Zposition Zrotation Xrotation Yrotation
            JOINT RightForeArm
            {
              OFFSET 33.0001 1.6e-05 0
              CHANNELS 6 Xposition Yposition Zposition Zrotation Xrotation Yrotation
              JOINT RightHand
              {
                OFFSET 25.1998 0.000123 0.000432
                CHANNELS 6 Xposition Yposition Zposition Zrotation Xrotation Yrotation
                End Site
                {
                  OFFSET 0 0 0
                }
              }
            }
          }
        }
      }
    }
  }
}
MOTION
Frames:	7
Frame Time:	0.0333333
3.1259 89.684 178.706 -76.4523 -64.642 -168.091 0.103456 1.85784 10.5485 17.6871 11.7774 -178.741 43.5 -4.2e-05 1e-05 -1.76466 -18.7395 -3.28304 42.3722 1.9e-05 0 77.3403 -8.20422 4.09331 17.3 -1.42109e-14 3e-06 21.4546 -1e-06 0.003093 0.103456 1.85782 -10.5485 -3.5554 0.0704038 -178.798 43.5 -2.7e-05 4e-06 -24.8568 0.519844 -6.80648 42.3723 0 1e-05 82.0804 7.51407 4.91969 17.3 -6e-06 1.7e-05 21.4546 -1.9e-05 -0.003116 6.90197 -2.60373 -3e-06 7.57776 3.68375 -0.00204791 12.5881 1e-05 8e-06 5.09301 7.41323 -0.514048 12.3432 -1.8e-05 -5e-06 4.69438 7.44113 -0.955743 25.8329 2.3e-05 7e-06 4.32144 -2.23671 -8.43573 11.7666 -8e-06 -6e-06 -30.282 -7.25021 10.3121 19.7459 -1.48035 6.0001 -175.609 3.83478 -91.2535 11.2841 1.8e-05 -2e-05 28.1937 -15.9103 17.3761 33 -1.3e-05 1.9e-05 -34.6631 -4.77938 -15.6717 25.2 3.2e-05 1.1e-05 12.5513 27.9567 -4.79665 19.7461 -1.48036 -6.00008 -179.058 4.27689 94.0425 11.2841 0 -1e-06 -6.99037 9.46978 -11.4903 33.0001 1.6e-05 -1e-06 -18.6208 -0.224396 14.8198 25.1998 0.000123 0.000432 7.73796 -13.6052 3.18594 
3.12014 89.6789 178.703 -76.4158 -64.5699 -168.07 0.103456 1.85784 10.5485 17.7039 12.2467 -178.737 43.5 -4.2e-05 1e-05 -1.81392 -18.7243 -3.34487 42.3722 1.9e-05 7.10543e-15 77.2368 -8.00459 3.80582 17.3 1.42109e-14 3e-06 21.4546 -1e-06 0.003093 0.103456 1.85782 -10.5485 -3.53615 0.111958 -178.766 43.5 -2.7e-05 4e-06 -24.8756 0.465903 -6.89846 42.3723 -2.84217e-14 1e-05 82.0213 7.64456 4.97035 17.3 -6e-06 1.7e-05 21.4546 -1.9e-05 -0.003116 6.90197 -2.60373 -3e-06 7.58562 3.70091 0.00306983 12.5881 1e-05 8e-06 5.10838 7.44832 -0.506776 12.3432 -1.8e-05 -5e-06 4.70947 7.47682 -0.95059 25.8329 2.3e-05 7e-06 4.32144 -2.23671 -8.43573 11.7666 -8e-06 -6e-06 -30.2308 -7.24565 10.312 19.7459 -1.48035 6.0001 -175.634 3.83268 -91.2794 11.2841 1.8e-05 -2e-05 28.1014 -15.9115 17.4418 33 -1.3e-05 1.9e-05 -34.7072 -4.7166 -15.7107 25.2 3.2e-05 1.1e-05 12.4633 27.9759 -4.79849 19.7461 -1.48036 -6.00008 -179.031 4.27053 94.0048 11.2841 0 -1e-06 -6.9373 9.43093 -11.5036 33.0001 1.6e-05 -1e-06 -18.7355 -0.218668 14.8463 25.1998 0.000123 0.000432 7.70702 -13.5917 3.17433 
3.1175 89.6793 178.704 -76.4478 -64.575 -168.093 0.103456 1.85784 10.5485 17.6456 12.3408 -178.718 43.5 -4.2e-05 1e-05 -1.93523 -18.7447 -3.37906 42.3722 1.9e-05 0 77.3659 -7.6766 3.85013 17.3 0 3e-06 21.4546 -1e-06 0.003093 0.103456 1.85782 -10.5485 -3.54765 0.10935 -178.777 43.5 -2.7e-05 4e-06 -24.8744 0.446755 -6.89255 42.3723 0 1e-05 81.9803 7.66898 4.97734 17.3 -6e-06 1.7e-05 21.4546 -1.9e-05 -0.003116 6.90197 -2.60373 -3e-06 7.59001 3.70437 0.00816334 12.5881 1e-05 8e-06 5.11683 7.45597 -0.497343 12.3432 -1.8e-05 -5e-06 4.71781 7.48519 -0.941648 25.8329 2.3e-05 7e-06 4.32117 -2.2389 -8.43497 11.7666 -8e-06 -6e-06 -30.1591 -7.22355 10.3088 19.7459 -1.48035 6.0001 -175.677 3.85126 -91.2988 11.2841 1.8e-05 -2e-05 28.0341 -15.961 17.5779 33 -1.3e-05 1.9e-05 -34.7729 -4.64781 -15.7409 25.2 3.2e-05 1.1e-05 12.3296 27.9833 -4.77584 19.7461 -1.48036 -6.00008 -179.002 4.24093 93.9563 11.2841 0 -1e-06 -6.89114 9.44993 -11.5723 33.0001 1.6e-05 -1e-06 -18.8815 -0.278367 14.8792 25.1998 0.000123 0.000432 7.61833 -13.5794 3.13801 
3.11749 89.6788 178.702 -76.4701 -64.5694 -168.107 0.103456 1.85784 10.5485 17.523 12.391 -178.671 43.5 -4.2e-05 1e-05 -2.16071 -18.7238 -3.47782 42.3722 1.9e-05 0 77.3819 -7.57183 3.86233 17.3 1.42109e-14 3e-06 21.4546 -1e-06 0.003093 0.103456 1.85782 -10.5485 -3.56942 0.103874 -178.803 43.5 -2.7e-05 4e-06 -24.8644 0.426453 -6.88374 42.3723 2.84217e-14 1e-05 81.9473 7.69744 4.99196 17.3 -6e-06 1.7e-05 21.4546 -1.9e-05 -0.003116 6.90197 -2.60373 -3e-06 7.60068 3.70346 0.0174548 12.5881 1e-05 8e-06 5.13755 7.46755 -0.480157 12.3432 -1.8e-05 -5e-06 4.73842 7.49808 -0.925142 25.8329 2.3e-05 7e-06 4.30433 -2.26999 -8.42376 11.7666 -8e-06 -6e-06 -30.0561 -7.23396 10.2804 19.7459 -1.48035 6.0001 -175.731 3.84376 -91.3079 11.2841 1.8e-05 -2e-05 27.9781 -16.0299 17.8462 33 -1.3e-05 1.9e-05 -34.9279 -4.51746 -15.7725 25.2 3.2e-05 1.1e-05 12.1164 28.0061 -4.73548 19.7461 -1.48036 -6.00008 -178.941 4.19175 93.8407 11.2841 0 -1e-06 -6.8588 9.41096 -11.6485 33.0001 1.6e-05 -1e-06 -19.2517 -0.466577 14.9679 25.1998 0.000123 0.000432 7.46294 -13.6064 3.08749 
3.10908 89.6774 178.7 -76.488 -64.5598 -168.106 0.103456 1.85784 10.5485 17.3287 12.5364 -178.59 43.5 -4.2e-05 1e-05 -2.55081 -18.6717 -3.65314 42.3722 1.9e-05 0 77.427 -7.47529 3.82224 17.3 0 3e-06 21.4546 -1e-06 0.003093 0.103456 1.85782 -10.5485 -3.59527 0.101557 -178.839 43.5 -2.7e-05 4e-06 -24.8709 0.395307 -6.86709 42.3723 -2.84217e-14 1e-05 81.9231 7.73231 5.03414 17.3 -6e-06 1.7e-05 21.4546 -1.9e-05 -0.003116 6.90197 -2.60373 -3e-06 7.62916 3.70096 0.0231659 12.5881 1e-05 8e-06 5.19428 7.46612 -0.470276 12.3432 -1.8e-05 -5e-06 4.7951 7.49815 -0.915112 25.8329 2.3e-05 7e-06 4.23455 -2.32687 -8.43281 11.7666 -8e-06 -6e-06 -29.8993 -7.25108 10.2285 19.7459 -1.48035 6.0001 -175.675 3.81032 -91.1404 11.2841 1.8e-05 -2e-05 27.8481 -15.899 18.0761 33 -1.3e-05 1.9e-05 -35.3685 -4.29459 -15.7005 25.2 3.2e-05 1.1e-05 11.8858 28.1098 -4.78107 19.7461 -1.48036 -6.00008 -178.909 4.17879 93.6176 11.2841 0 -1e-06 -6.91478 9.33777 -11.7642 33.0001 1.6e-05 -1e-06 -19.9468 -0.958561 15.1294 25.1998 0.000123 0.000432 7.05965 -13.7208 3.02287 
3.08043 89.6747 178.739 -76.4749 -64.5841 -168.087 0.103456 1.85784 10.5485 16.9594 12.7837 -178.392 43.5 -4.2e-05 1e-05 -3.31724 -18.5769 -3.97166 42.3722 1.9e-05 0 77.5912 -7.26484 3.75947 17.3 0 3e-06 21.4546 -1e-06 0.003093 0.103456 1.85782 -10.5485 -3.59398 0.111581 -178.862 43.5 -2.7e-05 4e-06 -24.8242 0.357637 -6.8579 42.3723 0 1e-05 81.8868 7.83941 5.06713 17.3 -6e-06 1.7e-05 21.4546 -1.9e-05 -0.003116 6.90197 -2.60373 -3e-06 7.66664 3.70051 0.0457889 12.5881 1e-05 8e-06 5.26791 7.45528 -0.426282 12.3432 -1.8e-05 -5e-06 4.86867 7.49117 -0.87042 25.8329 2.3e-05 7e-06 4.1245 -2.44319 -8.3995 11.7666 -8e-06 -6e-06 -29.6148 -7.27978 10.0898 19.7459 -1.48035 6.0001 -175.715 3.75821 -91.0265 11.2841 1.8e-05 -2e-05 27.6231 -15.8778 18.6928 33 -1.3e-05 1.9e-05 -35.6445 -3.86858 -15.7961 25.2 3.2e-05 1.1e-05 11.4101 28.2435 -4.75868 19.7461 -1.48036 -6.00008 -178.763 4.09751 93.2683 11.2841 0 -1e-06 -6.96627 9.01294 -11.8488 33.0001 1.6e-05 -1e-06 -21.0835 -1.34784 15.3407 25.1998 0.000123 0.000432 6.72825 -13.7407 2.87952 
3.05371 89.672 178.793 -76.468 -64.6064 -168.074 0.103456 1.85784 10.5485 15.9238 12.918 -177.987 43.5 -4.2e-05 1e-05 -5.39082 -18.4242 -4.46778 42.3722 1.9e-05 -7.10543e-15 78.3348 -6.97042 3.92547 17.3 0 3e-06 21.4546 -1e-06 0.003093 0.103456 1.85782 -10.5485 -3.62271 0.110194 -178.908 43.5 -2.7e-05 4e-06 -24.7818 0.307413 -6.83943 42.3723 0 1e-05 81.8501 7.92739 5.11125 17.3 -6e-06 1.7e-05 21.4546 -1.9e-05 -0.003116 6.90197 -2.60373 -3e-06 7.73703 3.70535 0.0650182 12.5881 1e-05 8e-06 5.40773 7.46909 -0.39293 12.3432 -1.8e-05 -5e-06 5.00826 7.50914 -0.837742 25.8329 2.3e-05 7e-06 3.91576 -2.53048 -8.36987 11.7666 -8e-06 -6e-06 -29.2486 -7.25332 9.94219 19.7459 -1.48035 6.0001 -175.759 3.72456 -90.8285 11.2841 1.8e-05 -2e-05 27.326 -15.8452 19.5189 33 -1.3e-05 1.9e-05 -36.1642 -3.59356 -15.7435 25.2 3.2e-05 1.1e-05 11.0513 28.3456 -4.94937 19.7461 -1.48036 -6.00008 -178.48 4.00645 92.7407 11.2841 2.84217e-14 -1e-06 -7.11877 8.23385 -11.9522 33.0001 1.6e-05 -1e-06 -22.4984 -1.68362 15.5566 25.1998 0.000123 0.000432 6.41239 -13.827 2.91036 
